<?xml version="1.0" encoding="UTF-8" standalone="no"?>
<!-- Created with Inkscape (http://www.inkscape.org/) -->

<svg
   width="210mm"
   height="297mm"
   viewBox="0 0 210 297"
   version="1.1"
   id="svg1"
   xml:space="preserve"
   xmlns="http://www.w3.org/2000/svg"
   xmlns:svg="http://www.w3.org/2000/svg"><defs
     id="defs1" /><g
     id="layer1"><path
       style="fill:#000000;stroke-width:0.54738"
       d="m 56.779672,168.38577 v -19.02832 h 3.473831 3.473828 v 15.96925 15.96925 h 7.569839 7.56984 v 3.05907 3.05901 H 67.823338 56.779672 Z m 25.52615,18.93479 c 0.01912,-0.0531 3.651431,-8.61597 8.071484,-19.029 l 8.036477,-18.93283 3.784917,2e-4 3.78492,2.2e-4 8.16338,18.84599 c 4.48986,10.36532 8.19315,18.92821 8.22954,19.02875 l 0.0661,0.18287 -3.75369,-0.0255 -3.75369,-0.0255 -1.7555,-4.19973 c -0.96552,-2.30982 -1.94653,-4.65466 -2.18,-5.21073 l -0.42448,-1.01103 h -6.26224 c -3.44423,0 -6.262242,-0.034 -6.262242,-0.0715 0,-0.0382 0.520873,-1.39261 1.157493,-3.00721 l 1.157459,-2.93559 h 3.83205 3.83204 l -0.0523,-0.18161 c -0.0668,-0.23136 -5.75763,-13.79803 -5.87873,-14.01442 -0.0756,-0.1348 -0.10909,-0.11903 -0.20363,0.0952 -0.0623,0.1412 -2.885449,7.06984 -6.273738,15.39665 l -6.160515,15.13969 -3.595064,0.0255 c -2.17856,0.0171 -3.581274,-0.009 -3.560055,-0.069 z m 44.987428,-18.92811 v -19.035 h 9.54415 c 5.99839,0 9.91824,0.0426 10.55111,0.10973 4.34548,0.47275 7.07106,2.29691 8.05182,5.3888 0.75752,2.38804 0.58103,5.5085 -0.42401,7.49558 -1.01827,2.01341 -2.90851,3.6839 -5.4258,4.79514 l -0.77508,0.34235 0.30834,0.0659 c 0.16969,0.0382 0.77508,0.20711 1.3454,0.37935 4.18977,1.26706 6.19735,4.35968 5.91398,9.11028 -0.19011,3.18478 -1.00402,5.44064 -2.56569,7.11007 -1.46333,1.5643 -3.24313,2.454 -5.94068,2.96971 l -1.14067,0.21817 -9.72155,0.0426 -9.72153,0.0426 z m 18.37505,12.78791 c 2.16451,-0.45522 3.2939,-2.06885 3.2939,-4.70629 0,-2.46382 -1.05504,-4.31918 -2.95175,-5.19077 -1.17009,-0.5377 -2.04322,-0.69203 -4.22763,-0.74744 l -1.94629,-0.0493 0.0298,-2.23282 0.0298,-2.23276 0.91085,-0.18841 c 5.09296,-1.05233 7.75101,-3.45564 7.78508,-7.03886 0.0127,-1.53381 -0.48369,-2.4264 -1.65905,-2.97196 -0.85965,-0.39892 -1.88616,-0.45783 -7.45166,-0.42695 l -5.18482,0.0298 -0.0264,12.93614 -0.0264,12.93613 h 5.43935 c 3.60122,0 5.62504,-0.0382 5.98888,-0.11572 z m -89.925593,-55.8286 v -19.02831 h 12.443568 12.443574 v 3.00722 3.00717 h -8.969742 -8.969741 v 4.82188 4.82188 h 8.554953 8.554957 v 3.11091 3.11091 h -8.606805 -8.606799 v 8.0883 8.08832 h -3.421984 -3.421981 z m 27.70378,18.9348 c 0.01912,-0.0531 3.651419,-8.61597 8.071484,-19.02904 l 8.03646,-18.9328 3.784939,2.2e-4 3.78491,2e-4 8.16338,18.84596 c 4.48986,10.36531 8.19316,18.92825 8.22954,19.02879 l 0.0661,0.18287 -3.75367,-0.0255 -3.7537,-0.0255 -1.75549,-4.19973 c -0.96553,-2.30983 -1.94653,-4.65466 -2.18001,-5.21072 l -0.42448,-1.01105 h -6.26224 c -3.44424,0 -6.262229,-0.034 -6.262229,-0.0715 0,-0.0382 0.52085,-1.39261 1.157459,-3.00722 l 1.15748,-2.9356 h 3.83204 3.83206 l -0.0523,-0.1816 c -0.0668,-0.23135 -5.75763,-13.79807 -5.87872,-14.01441 -0.0756,-0.13482 -0.10909,-0.11903 -0.20363,0.0952 -0.0623,0.1412 -2.88546,7.06982 -6.273737,15.39664 l -6.160516,15.13969 -3.595076,0.0255 c -2.178548,0.0171 -3.581261,-0.009 -3.560042,-0.0689 z M 128.3302,125.3584 v -19.03495 h 9.54416 c 5.99841,0 9.91826,0.0426 10.55109,0.10973 4.34551,0.47279 7.07106,2.29689 8.05186,5.38883 0.75753,2.38799 0.58104,5.50847 -0.424,7.49555 -1.01832,2.01344 -2.90852,3.68393 -5.4258,4.79513 l -0.77513,0.34235 0.30834,0.0659 c 0.16969,0.0382 0.77513,0.20712 1.34544,0.37936 4.18977,1.26706 6.19734,4.35967 5.91397,9.11028 -0.19009,3.18477 -1.00402,5.44063 -2.56572,7.11005 -1.46328,1.5643 -3.24313,2.45401 -5.94065,2.96972 l -1.14066,0.21817 -9.72155,0.0426 -9.72154,0.0426 z m 18.37508,12.78796 c 2.16452,-0.45523 3.29386,-2.0689 3.29386,-4.70628 0,-2.46388 -1.05505,-4.31919 -2.95175,-5.19079 -1.17009,-0.53768 -2.04322,-0.69206 -4.22759,-0.74744 l -1.94634,-0.0493 0.0298,-2.23281 0.0298,-2.2328 0.91085,-0.18841 c 5.09296,-1.05234 7.75101,-3.45559 7.78512,-7.03887 0.0127,-1.53376 -0.48373,-2.42639 -1.65906,-2.97191 -0.85968,-0.39893 -1.88619,-0.45783 -7.45169,-0.42695 l -5.18481,0.0298 -0.0264,12.93613 -0.0264,12.93614 h 5.43934 c 3.60126,0 5.62509,-0.0382 5.98887,-0.11572 z"
       id="path2" /></g></svg>
